<svg xmlns="http://www.w3.org/2000/svg" width="128" height="128" viewBox="0 0 128 128">
  <defs>
    <linearGradient id="grad" x1="0%" y1="0%" x2="100%" y2="100%">
      <stop offset="0%" style="stop-color:#2563eb"/>
      <stop offset="100%" style="stop-color:#7c3aed"/>
    </linearGradient>
    <filter id="shadow" x="-20%" y="-20%" width="140%" height="140%">
      <feDropShadow dx="0" dy="2" stdDeviation="3" flood-opacity="0.2"/>
    </filter>
  </defs>
  <rect width="128" height="128" rx="24" fill="url(#grad)"/>
  
  <!-- Car body -->
  <path d="M24 75C24 66 32 56 44 56H84C96 56 104 66 104 75V88H24V75Z" fill="white" filter="url(#shadow)"/>
  
  <!-- Wheels -->
  <circle cx="40" cy="88" r="12" fill="#1e40af"/>
  <circle cx="40" cy="88" r="6" fill="#3b82f6"/>
  <circle cx="88" cy="88" r="12" fill="#1e40af"/>
  <circle cx="88" cy="88" r="6" fill="#3b82f6"/>
  
  <!-- Windows -->
  <rect x="32" y="38" width="64" height="20" rx="6" fill="white" opacity="0.85"/>
  
  <!-- Roof -->
  <rect x="46" y="26" width="36" height="14" rx="4" fill="white" opacity="0.6"/>
  
  <!-- Headlights -->
  <rect x="28" y="68" width="8" height="6" rx="2" fill="#fbbf24"/>
  <rect x="92" y="68" width="8" height="6" rx="2" fill="#fbbf24"/>
  
  <!-- Grille -->
  <rect x="52" y="68" width="24" height="8" rx="2" fill="#e5e7eb"/>
  <line x1="58" y1="68" x2="58" y2="76" stroke="#94a3b8" stroke-width="2"/>
  <line x1="64" y1="68" x2="64" y2="76" stroke="#94a3b8" stroke-width="2"/>
  <line x1="70" y1="68" x2="70" y2="76" stroke="#94a3b8" stroke-width="2"/>
</svg>