<svg xmlns="http://www.w3.org/2000/svg" width="128" height="128" viewBox="0 0 128 128">
  <defs>
    <linearGradient id="grad128" x1="0%" y1="0%" x2="100%" y2="100%">
      <stop offset="0%" style="stop-color:#3b82f6;stop-opacity:1" />
      <stop offset="100%" style="stop-color:#8b5cf6;stop-opacity:1" />
    </linearGradient>
    <filter id="shadow" x="-20%" y="-20%" width="140%" height="140%">
      <feDropShadow dx="0" dy="4" stdDeviation="4" flood-opacity="0.2"/>
    </filter>
  </defs>
  
  <!-- Background -->
  <rect width="128" height="128" rx="24" fill="url(#grad128)"/>
  
  <!-- Car illustration -->
  <g transform="translate(14, 30)" filter="url(#shadow)">
    <!-- Car body -->
    <path d="M90 42H84L72 12a8 8 0 0 0-7.5-6H35.5a8 8 0 0 0-7.5 6L16 42h-6a5 5 0 0 0-5 5v16a5 5 0 0 0 5 5h6c0 8.8 7.2 16 16 16s16-7.2 16-16h16c0 8.8 7.2 16 16 16s16-7.2 16-16h6a5 5 0 0 0 5-5V47a5 5 0 0 0-5-5z" 
          fill="white"/>
    
    <!-- Windows -->
    <path d="M32 16l-8 22h52l-8-22z" fill="rgba(59, 130, 246, 0.4)" stroke="rgba(59, 130, 246, 0.6)" stroke-width="2"/>
    
    <!-- Left wheel -->
    <circle cx="32" cy="68" r="12" fill="#1e3a5f"/>
    <circle cx="32" cy="68" r="8" fill="#3b82f6"/>
    <circle cx="32" cy="68" r="4" fill="white"/>
    
    <!-- Right wheel -->
    <circle cx="68" cy="68" r="12" fill="#1e3a5f"/>
    <circle cx="68" cy="68" r="8" fill="#3b82f6"/>
    <circle cx="68" cy="68" r="4" fill="white"/>
    
    <!-- Headlights -->
    <rect x="80" y="44" width="8" height="6" rx="2" fill="#fbbf24"/>
    <rect x="12" y="44" width="8" height="6" rx="2" fill="#fbbf24"/>
    
    <!-- Door line -->
    <line x1="50" y1="38" x2="50" y2="58" stroke="rgba(59, 130, 246, 0.3)" stroke-width="2"/>
  </g>
  
  <!-- Facebook badge -->
  <circle cx="102" cy="26" r="18" fill="#1877f2"/>
  <text x="102" y="33" font-family="Arial, sans-serif" font-size="24" font-weight="bold" fill="white" text-anchor="middle">f</text>
  
  <!-- FMD text -->
  <text x="64" y="118" font-family="Arial, sans-serif" font-size="14" font-weight="bold" fill="white" text-anchor="middle" opacity="0.9">Dealers Face</text>
</svg>
