<svg xmlns="http://www.w3.org/2000/svg" width="48" height="48" viewBox="0 0 48 48">
  <defs>
    <linearGradient id="grad48" x1="0%" y1="0%" x2="100%" y2="100%">
      <stop offset="0%" style="stop-color:#3b82f6;stop-opacity:1" />
      <stop offset="100%" style="stop-color:#8b5cf6;stop-opacity:1" />
    </linearGradient>
  </defs>
  <rect width="48" height="48" rx="10" fill="url(#grad48)"/>
  
  <!-- Car body -->
  <g fill="white" transform="translate(6, 10)">
    <!-- Main car shape -->
    <path d="M32 16h-2l-4-10a3 3 0 0 0-2.8-2H12.8a3 3 0 0 0-2.8 2L6 16H4a2 2 0 0 0-2 2v6a2 2 0 0 0 2 2h2a4 4 0 0 0 8 0h8a4 4 0 0 0 8 0h2a2 2 0 0 0 2-2v-6a2 2 0 0 0-2-2z"/>
    <!-- Left wheel -->
    <circle cx="10" cy="24" r="3" fill="#3b82f6"/>
    <circle cx="10" cy="24" r="1.5" fill="white"/>
    <!-- Right wheel -->
    <circle cx="26" cy="24" r="3" fill="#3b82f6"/>
    <circle cx="26" cy="24" r="1.5" fill="white"/>
    <!-- Windshield -->
    <path d="M11 8l-2 6h18l-2-6z" fill="rgba(59, 130, 246, 0.3)"/>
  </g>
  
  <!-- Facebook "f" indicator -->
  <circle cx="38" cy="10" r="8" fill="#1877f2"/>
  <text x="38" y="14" font-family="Arial, sans-serif" font-size="12" font-weight="bold" fill="white" text-anchor="middle">f</text>
</svg>
